#!OML:ASF F:\VICON\USERDATA\INSTALL\rory3\rory3.ASF
:FULLY-SPECIFIED
:DEGREES
55
root -0.027111080900302675 18.335589203376102 21.745248878666686 4.075889219610468 3.6514216164884012 -4.5481119085038255
lfemur -37.651965867754946 -2.4475127032749255 -17.874094016459132
ltibia 48.59829654483295
lfoot -2.107243498411231 -9.909465055657066
ltoes -16.48363899090341
rfemur 6.978909859921597 2.5200318471694914 33.12584610809192
rtibia 33.85881209676339
rfoot 20.294670538738707 -1.3680370584525425
rtoes 8.189830021085738
lowerback 13.124213051599 2.0796580923284695 5.421003639010301
upperback -2.0838922206147696 3.7853657810913948 1.390548446818279
thorax -9.06672943678687 1.5726545182333393 -3.4188238667176294
lowerneck -19.31342014647549 -5.077834786123182 -2.076318074519186
upperneck 14.934163992854458 -6.865172092132633 2.5606089087733173
head 7.909111348003339 -3.1279163724384427 0.32546357118580405
lclavicle -3.8040426163047386e-15 2.7824374747060515e-16
lhumerus -69.47570333581322 -8.912727253983945 96.72171174450625
lradius 105.60176662531843
lwrist 33.70665958297203
lhand -25.436082150268156 3.39162292802109
lfingers 7.12502
lthumb 1.0902997088029627 33.36954808191049
rclavicle -3.8040426163047386e-15 2.7824374747060515e-16
rhumerus -41.401945733672974 11.63470907715507 -93.46631979239385
rradius 113.57842152375753
rwrist -11.548835153105346
rhand -14.714449393889616 38.574862976770135
rfingers 7.12502
rthumb 11.439421729747291 10.634694582620734
56
root -0.02120781463433613 18.41125886743769 22.52685283778341 4.188069935772201 3.7799370325021893 -4.714992111085964
lfemur -36.53502142180697 -2.2921634118455807 -18.22954838987438
ltibia 41.24911267995554
lfoot -0.7643987381885138 -10.940314704816338
ltoes -15.689493999888338
rfemur 8.207248489852592 3.8271396717910835 33.52990134434927
rtibia 35.439111253820954
rfoot 22.209982681769326 -1.5492983460622156
rtoes 12.219197180940858
lowerback 12.714248485793634 2.312517463511754 5.683967918581296
upperback -2.255637470009019 4.101133815565342 1.2516097925810135
thorax -8.922887597675352 1.7091915512581295 -3.803864614500187
lowerneck -19.304387504939847 -5.168460510933606 -2.1189408446895057
upperneck 15.350554732731025 -7.012221102288645 2.648158520448958
head 8.04732049778111 -3.1848320837683257 0.3425321200697145
lclavicle -3.793571219333846e-15 2.8582617560524747e-16
lhumerus -70.83839478097954 -7.66069535421738 95.97834479581701
lradius 106.5999930933922
lwrist 33.23518013943786
lhand -25.276076696505825 2.8474611596934185
lfingers 7.12502
lthumb 1.24480501044423 32.820093802732984
rclavicle -3.793571219333846e-15 2.8582617560524747e-16
rhumerus -41.50213562326492 12.076323487897042 -93.663663119803
rradius 113.17967843862293
rwrist -11.703723649720535
rhand -14.949990161346557 38.51100218854943
rfingers 7.12502
rthumb 11.21250226178476 10.610577345023547
57
root -0.013017919200187772 18.450583577031118 23.67681652445398 4.1806878585009555 3.8236857783743052 -4.849762324261058
lfemur -34.491825482828695 -1.7830877501202413 -18.55529870609833
ltibia 35.72421438128114
lfoot 0.8519262878402103 -11.21509271569565
ltoes -15.429438865023693
rfemur 8.717336010329465 4.961231831654432 33.989751852837266
rtibia 39.2451822848744
rfoot 22.46405103521792 -2.0943477123289895
rtoes 14.593621965468593
lowerback 12.609778515651147 2.496839012114873 5.900694881482132
upperback -2.285853862792092 4.365123426449388 1.2208613129421906
thorax -8.83751143980695 1.8241968072514254 -3.935295663003694
lowerneck -19.44352103467026 -5.17196016019131 -2.1582360936354044
upperneck 15.60695837033039 -7.02237468881901 2.746929030705962
head 8.162729196127732 -3.1791454276403073 0.3779344645821733
lclavicle -3.252988894038553e-15 6.7794866954705e-16
lhumerus -71.12147953788576 -6.638584984047172 95.5303044044795
lradius 108.02177341449469
lwrist 32.74919518624552
lhand -24.890947440279362 2.1955874602800414
lfingers 7.12502
lthumb 1.6167278778601653 32.15833853372018
rclavicle -3.252988894038553e-15 6.7794866954705e-16
rhumerus -41.57676673140662 12.65076705266888 -93.90516742391223
rradius 112.76770887075165
rwrist -11.62084357408386
rhand -15.439576151024125 38.626636567917416
rfingers 7.12502
rthumb 10.740719459253226 10.529049236303779
58
root 0.0006511354556995308 18.456942573162266 25.555421136713335 4.016404635160948 3.9185706477163262 -4.826040424331001
lfemur -31.793804698298707 -1.1386445765524067 -18.783700142234903
ltibia 32.815990963035404
lfoot 2.45162442860576 -10.968089486318153
ltoes -15.631069051387335
rfemur 9.004584915453798 5.643121023672252 34.327184449323944
rtibia 44.854426561644615
rfoot 22.092880595176858 -2.733860691578276
rtoes 15.500337622032248
lowerback 12.774840507741281 2.6418862347420187 6.018575202016658
upperback -2.1686130732954303 4.576091841672567 1.2593666382398205
thorax -8.790381570018306 1.9196702247875956 -3.8076500302055414
lowerneck -19.52018041797208 -5.092856641009517 -2.197738985052275
upperneck 15.67556110138248 -6.9029403156054805 2.8754077746065043
head 8.217072186511723 -3.117280683125222 0.44037838630723236
lclavicle -2.05350537191293e-15 1.5481293057733834e-15
lhumerus -70.48570336259783 -5.800828872419837 95.4486499105402
lradius 109.64669775057823
lwrist 32.307072863293094
lhand -24.466149597041525 1.6668832533719218
lfingers 7.12502
lthumb 2.026987554549171 31.622915426015613
rclavicle -2.05350537191293e-15 1.5481293057733834e-15
rhumerus -41.41866946954586 13.195238982925053 -94.09713396215643
rradius 112.36464734973129
rwrist -11.33515532699573
rhand -15.881241703764466 38.75724176300325
rfingers 7.12502
rthumb 10.315014580280435 10.405821652163752
59
root -0.005053468451520132 18.4023661465204 26.641553413630767 3.6060259795702243 3.9540801686863083 -4.81725428833453
lfemur -30.094681622596635 -0.7275754602239135 -19.31050940802924
ltibia 30.569996417372867
lfoot 2.9989721644849925 -10.984071506038198
ltoes -15.988037873308748
rfemur 8.159256289060188 5.609895888703035 34.168270363622135
rtibia 50.09803965461339
rfoot 21.011469728211154 -3.831034727141045
rtoes 14.807114209556591
lowerback 13.008766548811384 2.6712079191104845 5.857344630357087
upperback -1.9971513065225435 4.6019037648860515 1.256471056309001
thorax -8.796637729488411 1.9401739270386122 -3.6964145291898816
lowerneck -19.59400603497968 -5.0486859774311235 -2.2694030706621833
upperneck 15.534613061315005 -6.82897476968826 2.9574141514287957
head 8.200928766582551 -3.079426919992472 0.4947827019286625
lclavicle -1.9288607707744537e-15 1.6384952497321192e-15
lhumerus -70.14712534348882 -5.40435323031361 95.50372095305941
lradius 110.72066450100479
lwrist 31.765082261291145
lhand -24.317869802266046 1.3733633647422925
lfingers 7.12502
lthumb 2.1702173884834934 31.329084696942417
rclavicle -1.9288607707744537e-15 1.638495249732119e-15
rhumerus -41.62729499460226 13.399289742143088 -94.44154852592499
rradius 111.6339456914253
rwrist -11.111946325783485
rhand -16.25717885219844 38.81847943651109
rfingers 7.12502
rthumb 9.952405015035643 10.260495896761743
60
root -0.011722713126009837 18.318129609367922 28.067731851270196 3.112322723994123 4.119115250291129 -4.687177778535284
lfemur -28.205318062831175 -0.32009279918675615 -19.680923428913584
ltibia 30.334138949806178
lfoot 3.062506182620947 -11.133942492796134
ltoes -14.733019120074296
rfemur 7.366858969857855 5.176059256836849 33.81284876544653
rtibia 56.672683529206935
rfoot 20.154300114985926 -4.976530505789201
rtoes 13.757934015162324
lowerback 13.37963069981216 2.689492889550218 5.616341074070933
upperback -1.7469367173876886 4.60646528348618 1.2780353087342884
thorax -8.822063688331607 1.9533059995334456 -3.4249272590769677
lowerneck -19.55987636530876 -4.973216804015719 -2.330525504178389
upperneck 15.331235631409275 -6.7147865993909095 3.074925914326962
head 8.151796307755909 -3.0225241377498167 0.5661085574879726
lclavicle -1.3303374930172193e-15 2.0724172667956324e-15
lhumerus -69.26129476553083 -5.140645453376379 95.85641759817038
lradius 111.791901804581
lwrist 31.292818148196165
lhand -24.272455261931476 1.3268487533932425
lfingers 7.12502
lthumb 2.2141174788651012 31.286687422464162
rclavicle -1.3303374930172191e-15 2.0724172667956324e-15
rhumerus -41.69819505996124 13.470721238500829 -94.7653294118861
rradius 110.8180551590503
rwrist -10.803898891824304
rhand -16.463359771442885 38.86157322005265
rfingers 7.12502
rthumb 9.753355210397523 10.168051148997186
61
root -0.021914376652187484 18.188111803944352 29.4190141857707 2.5450797800158456 4.456589146730142 -4.3997709316964695
lfemur -26.41569510718928 -0.07489909904552333 -20.05771778675235
ltibia 32.08234803220452
lfoot 2.1455348044367177 -11.375656995196987
ltoes -11.30054324592332
rfemur 6.214448616770813 4.2785602681253865 33.08473808864789
rtibia 63.97809295989558
rfoot 19.239844353899485 -6.003941394916077
rtoes 12.63848844145696
lowerback 13.87083552980688 2.6497297091440686 5.214139389720449
upperback -1.4575253534425496 4.51274348232521 1.2785683644268204
thorax -8.896939446439468 1.924673680441594 -3.0202719597513985
lowerneck -19.4959278444743 -4.884987308567603 -2.3620071345660003
upperneck 15.133029025295588 -6.590816341553502 3.190813777770462
head 8.094288445540572 -2.959774246146661 0.631588217303039
lclavicle -5.940080943101612e-16 2.6062819068871753e-15
lhumerus -67.86442578679825 -5.232265521983843 96.45800498809773
lradius 112.57765998310785
lwrist 30.889515800134017
lhand -24.30113609384893 1.4986077232160737
lfingers 7.12502
lthumb 2.1864484297442575 31.464867257231543
rclavicle -5.940080943101612e-16 2.6062819068871753e-15
rhumerus -41.7884445769217 13.27988049205208 -95.16538964477022
rradius 109.85107645546873
rwrist -10.46043628681967
rhand -16.550919923063805 38.8818824799689
rfingers 7.12502
rthumb 9.668677660791886 10.090008201681442
62
root -0.05214557118371596 18.003480579265485 29.743991065994365 1.9327323699682915 4.5754888660026936 -4.131844995833806
lfemur -25.68638468235719 -0.1773699295933645 -20.770115401576696
ltibia 34.05360635842751
lfoot -0.4034766940809362 -11.602880590518035
ltoes -7.166862613934086
rfemur 3.387456672543159 2.865218010214157 31.757997904429836
rtibia 69.96240326473523
rfoot 17.54311598599631 -7.11947863917952
rtoes 10.925584642083807
lowerback 14.316096772042162 2.502097250099134 4.479957483384608
upperback -1.218300588735925 4.221351224825472 1.1927414970819012
thorax -9.043979819527939 1.8160309405781776 -2.673329172142778
lowerneck -19.545704317417293 -4.846670179174112 -2.387882646262377
upperneck 14.903605541509469 -6.552652899385505 3.233816846037248
head 8.028198140000708 -2.9335062086186836 0.6640107863066677
lclavicle -1.1808780397625727e-15 2.1803800290858358e-15
lhumerus -66.71546795197452 -5.983050526546107 97.09822720425946
lradius 112.63220936039903
lwrist 30.57470919167788
lhand -24.469558703056357 1.6100822597605182
lfingers 7.12502
lthumb 2.02380594323282 31.582934222169566
rclavicle -1.1808780397625727e-15 2.1803800290858358e-15
rhumerus -42.53784189127152 12.594196881202484 -95.845424446897
rradius 108.48773327416106
rwrist -10.188737700388824
rhand -16.715141906509462 38.80091674363465
rfingers 7.12502
rthumb 9.510105829152302 9.916431842557124
